<svg viewBox="0 0 48 48" xmlns="http://www.w3.org/2000/svg" role="img" aria-label="BADA">
  <rect x="15.5" y="5.5" width="19" height="21" rx="3" fill="#ffffff" stroke="#cfe0fb" stroke-width="1"/>
  <line x1="19.5" y1="11.5" x2="29" y2="11.5" stroke="#2563eb" stroke-width="2" stroke-linecap="round"/>
  <line x1="19.5" y1="16" x2="26.5" y2="16" stroke="#9cc3fb" stroke-width="2" stroke-linecap="round"/>
  <path d="M19.5 20.8 l2.6 2.6 L27.5 18" fill="none" stroke="#2563eb" stroke-width="2.3" stroke-linecap="round" stroke-linejoin="round"/>
  <path d="M5 17.5 h11.2 l2.8 3 H40 a3 3 0 0 1 3 3 V37 a4 4 0 0 1-4 4 H9 a4 4 0 0 1-4-4 Z" fill="#1e3a8a"/>
  <path d="M5 34.2 q4.7-3.6 9.5 0 t9.5 0 t9.5 0 q2.4-1.8 5-0.6 V37 a4 4 0 0 1-4 4 H9 a4 4 0 0 1-4-4 Z" fill="#ffffff"/>
  <path d="M5 35.8 q4.7-3.6 9.5 0 t9.5 0 t9.5 0 q2.4-1.8 5-0.6 V38 a3 3 0 0 1-3 3 H8 a3 3 0 0 1-3-3 Z" fill="#3b82f6"/>
  <path d="M5 37.6 q4.7-3.2 9.5 0 t9.5 0 t9.5 0 q2.3-1.5 5-0.5 V38.5 a2.5 2.5 0 0 1-2.5 2.5 H7.5 A2.5 2.5 0 0 1 5 38.5 Z" fill="#1d4ed8"/>
</svg>
